<svg width="15" height="13" viewBox="0 0 15 13" fill="none" xmlns="http://www.w3.org/2000/svg">
<path d="M2.00645 5.85506L3.65373 7.65206C3.74159 7.83648 3.60659 8.04844 3.40089 8.04844H2.46877C3.17161 10.1321 5.16226 11.6371 7.50005 11.6371C9.18643 11.6371 10.6907 10.8549 11.6614 9.64032C11.7685 9.50678 11.9335 9.43047 12.1071 9.43047H12.1199C12.5956 9.43047 12.8656 9.97311 12.5699 10.3441C11.3871 11.8278 9.55285 12.7796 7.49791 12.7796C4.51728 12.7796 2.00164 10.7722 1.26023 8.05056H0.280976C0.075268 8.05056 -0.0618708 7.8386 0.0281265 7.65419L1.66249 5.85514C1.7632 5.64105 1.90574 5.64309 2.00645 5.85506Z" fill="#00D2FF"/>
<path d="M7.49982 0C10.4804 0 12.9961 2.00733 13.7375 4.729H14.7189C14.9246 4.729 15.0617 4.94096 14.9717 5.12538L13.4073 6.87105C13.3066 7.08302 13.1153 7.08302 13.0124 6.87105L11.344 5.12538C11.2561 4.94096 11.3911 4.729 11.5968 4.729H12.529C11.8283 2.64535 9.83761 1.14039 7.49982 1.14039C5.81344 1.14039 4.3092 1.92255 3.33851 3.13712C3.23137 3.27066 3.06638 3.34697 2.89281 3.34697H2.87995C2.40425 3.34697 2.13426 2.80433 2.42997 2.43339C3.61279 0.953854 5.44488 0 7.49982 0Z" fill="#00D2FF"/>
</svg>
